<svg id="Layer_1" data-name="Layer 1" xmlns="http://www.w3.org/2000/svg" width="58.12mm" height="72.54mm" viewBox="0 0 164.74 205.63">
  <defs>
    <style>
      .cls-1 {
        fill: #fee121;
      }

      .cls-2 {
        fill: #fff;
      }

      .cls-3 {
        fill: #010200;
      }
    </style>
  </defs>
  <path class="cls-1" d="M187.65,199.1H34.08V45.53A11.16,11.16,0,0,1,45.24,34.36H198.82V187.93a11.17,11.17,0,0,1-11.17,11.17" transform="translate(-34.08 -34.36)"/>
  <path class="cls-2" d="M165.66,87.09h-2.55a3.35,3.35,0,0,0-3.36,3.36v10.76a17.38,17.38,0,0,0-8.3-2.08,18.16,18.16,0,0,0-10.7,3.58,39.34,39.34,0,0,0-6.91,6.6s-.21-.25-.21-.25c-4.14-4.88-9.42-9.87-17.15-9.87a17.35,17.35,0,0,0-8.3,2.08,3.37,3.37,0,0,0-3.36-3.36h-2.55a3.37,3.37,0,0,0-3.37,3.36v7.92c-1.34,1.57-2.6,3.19-3.82,4.76-5,6.42-9.31,12-15.06,10.91a8.57,8.57,0,0,1-6.88-8.51V103a3.36,3.36,0,0,0-3.36-3.36H67.23A3.37,3.37,0,0,0,63.87,103v13.42a18,18,0,0,0,5.31,12.71,17.28,17.28,0,0,0,12.26,5.14h.06c7.72,0,13.1-5.05,17.4-10.23,0,0,10.91-12.28,11.47-12.89a8.31,8.31,0,0,1,6.11-2.69c2.43,0,5.44.92,10.88,7.57l.31.38a.79.79,0,0,1,.16.48.88.88,0,0,1-.18.52l-.45.53c-3.14,3.76-6.64,7.24-10.93,7.12a8.41,8.41,0,0,1-6.83-3.94,1.27,1.27,0,0,0-2-.16l-8.18,9.3a1.33,1.33,0,0,0-.32.84V143a3.37,3.37,0,0,0,3.37,3.37h2.54a3.37,3.37,0,0,0,3.37-3.37V132.25a17.47,17.47,0,0,0,8.3,2.08,18.06,18.06,0,0,0,10.69-3.59A37.81,37.81,0,0,0,134,124.3l5.9-7.73.87-1c3.15-3.76,6.65-7.24,10.93-7.12a8.39,8.39,0,0,1,8.06,7.58,8.23,8.23,0,0,1-2.16,6.33,8.35,8.35,0,0,1-6.11,2.68c-2,0-4.3-.59-8-4.31a1.28,1.28,0,0,0-1.92.13l-4.12,5.41a1.27,1.27,0,0,0,.13,1.7c3.6,3.49,8.05,6.35,13.89,6.35a17.28,17.28,0,0,0,8.3-2.09,3.35,3.35,0,0,0,3.36,3.36h2.55a3.35,3.35,0,0,0,3.36-3.36V90.45a3.35,3.35,0,0,0-3.36-3.36" transform="translate(-34.08 -34.36)"/>
  <g>
    <g>
      <path class="cls-3" d="M36.12,230.84l2.14-.46c.27,1.8,1.17,2.87,2.82,2.87s2.9-.92,2.9-3.31V218h2.09v11.72c0,3.8-2.21,5.5-5,5.5A4.73,4.73,0,0,1,36.12,230.84Z" transform="translate(-34.08 -34.36)"/>
      <path class="cls-3" d="M49,228.9c0-3.33,2.21-6.33,5.91-6.33s5.88,3,5.88,6.33-2.21,6.32-5.88,6.32S49,232.23,49,228.9Zm9.7,0c0-2.31-1.31-4.53-3.79-4.53s-3.82,2.22-3.82,4.53,1.31,4.52,3.82,4.52S58.74,231.21,58.74,228.9Z" transform="translate(-34.08 -34.36)"/>
      <path class="cls-3" d="M63.29,219.24a1.47,1.47,0,1,1,1.46,1.46A1.43,1.43,0,0,1,63.29,219.24Zm.46,3.53h2V235h-2Z" transform="translate(-34.08 -34.36)"/>
      <path class="cls-3" d="M69.4,222.77h2v2.36a4.75,4.75,0,0,1,4.06-2.56c2.26,0,3.77,1.39,3.77,3.92V235h-2v-8.1c0-1.68-.78-2.56-2.26-2.56-2,0-3.57,2-3.57,5.43V235h-2Z" transform="translate(-34.08 -34.36)"/>
      <path class="cls-3" d="M89.51,231.28v-6.71H87.44v-1.8h2.07v-3.68l2-1.28v5h3.29v1.8H91.53v6.86c0,1.41.66,2,1.7,2a2.75,2.75,0,0,0,1.42-.34l.51,1.7a4.75,4.75,0,0,1-2.1.44C91,235.22,89.51,234,89.51,231.28Z" transform="translate(-34.08 -34.36)"/>
      <path class="cls-3" d="M97.3,217.81h2v7.41a4.58,4.58,0,0,1,4.2-2.65c2.39,0,3.82,1.37,3.82,3.92V235h-2V227c0-1.68-.78-2.61-2.31-2.61-2,0-3.72,2-3.72,5.45V235h-2Z" transform="translate(-34.08 -34.36)"/>
      <path class="cls-3" d="M110.29,228.9c0-3.41,2-6.33,5.59-6.33s5.47,2.63,5.47,5.79v.85h-9c0,2.39,1.29,4.21,3.55,4.21,1.73,0,2.68-.73,3.5-2.38l1.7.73a5.31,5.31,0,0,1-5.25,3.45C112.31,235.22,110.29,232.3,110.29,228.9Zm9-1.41a3.32,3.32,0,0,0-3.43-3.12,3.51,3.51,0,0,0-3.4,3.12Z" transform="translate(-34.08 -34.36)"/>
      <path class="cls-3" d="M129.53,230.58l1.75-1.1c.48,2.05,1.56,3.77,3.77,3.77a2.63,2.63,0,0,0,2.8-2.89c0-2-1.73-2.78-3.77-3.75s-3.58-2.21-3.58-4.64a4.08,4.08,0,0,1,4.28-4.16,4.32,4.32,0,0,1,4.36,2.77l-1.73,1.09a2.67,2.67,0,0,0-2.63-1.89,2.08,2.08,0,0,0-2.21,2.06c0,1.83,1.68,2.61,3.5,3.43,2.14,1,3.92,2.27,3.92,5a4.74,4.74,0,0,1-5,5A5.53,5.53,0,0,1,129.53,230.58Z" transform="translate(-34.08 -34.36)"/>
      <path class="cls-3" d="M142.91,222.77h2v1.58a4.38,4.38,0,0,1,3.58-1.78c3.6,0,5.5,2.73,5.5,6.33s-1.9,6.32-5.5,6.32a4.44,4.44,0,0,1-3.58-1.72V240h-2Zm9,6.13c0-2.65-1.34-4.53-3.6-4.53s-3.58,1.88-3.58,4.53,1.31,4.52,3.58,4.52S151.91,231.53,151.91,228.9Z" transform="translate(-34.08 -34.36)"/>
      <path class="cls-3" d="M156.14,231.5c0-2.63,2.09-4,5.42-4h2.14V227a2.34,2.34,0,0,0-2.6-2.58,2.66,2.66,0,0,0-2.68,2l-1.8-.42a4.63,4.63,0,0,1,9.08,1.22V235h-1.58l-.37-1.78a4.24,4.24,0,0,1-3.82,2A3.46,3.46,0,0,1,156.14,231.5Zm7.56-1.9v-.39h-2.06c-2.32,0-3.41.83-3.41,2.27a1.84,1.84,0,0,0,2.07,1.94A3.46,3.46,0,0,0,163.7,229.6Z" transform="translate(-34.08 -34.36)"/>
      <path class="cls-3" d="M169.05,222.77h2v2.11a4,4,0,0,1,3.6-2.31,4.46,4.46,0,0,1,1.73.37l-.41,1.87a3.13,3.13,0,0,0-1.58-.41c-1.83,0-3.34,1.9-3.34,6V235h-2Z" transform="translate(-34.08 -34.36)"/>
      <path class="cls-3" d="M178.44,217.81h2V228l4.75-5.23h2.5l-5.18,5.62L188.1,235h-2.5l-5.14-6.23V235h-2Z" transform="translate(-34.08 -34.36)"/>
    </g>
    <polygon id="spark" class="cls-3" points="162.7 182.55 162.28 180.76 158.88 181.5 159.22 178.06 157.41 177.88 157.07 181.32 153.88 179.93 153.12 181.61 156.3 183.06 153.49 186.11 155.99 186.11 157.68 184.27 159.45 187.26 161.06 186.31 159.29 183.35 162.7 182.55"/>
  </g>
</svg>
